<svg viewBox="0 0 800 500" xmlns="http://www.w3.org/2000/svg">
  <rect width="800" height="500" fill="transparent"/>
  <g stroke="#1E3A5F" stroke-width="1.5" fill="none">
    <rect x="60" y="80" width="240" height="180"/>
    <rect x="300" y="80" width="200" height="180"/>
    <rect x="500" y="80" width="100" height="90"/>
    <rect x="500" y="170" width="100" height="90"/>
    <rect x="60" y="260" width="380" height="160"/>
    <rect x="440" y="260" width="160" height="100"/>
    <rect x="440" y="360" width="160" height="60"/>
    <rect x="600" y="80" width="180" height="340"/>
  </g>
  <g font-family="Georgia, serif" fill="#1E3A5F" text-anchor="middle">
    <text x="180" y="170" font-size="14" letter-spacing="1.5">MASTER SUITE</text>
    <text x="400" y="170" font-size="14" letter-spacing="1.5">RECÁMARA 2</text>
    <text x="550" y="125" font-size="10" letter-spacing="1.5">BAÑO</text>
    <text x="550" y="215" font-size="10" letter-spacing="1.5">CLOSET</text>
    <text x="250" y="335" font-size="16" letter-spacing="1.5">SALA · COMEDOR · COCINA</text>
    <text x="520" y="310" font-size="12" letter-spacing="1.5">COMEDOR</text>
    <text x="520" y="395" font-size="10" letter-spacing="1.5">MEDIO BAÑO</text>
    <text x="690" y="245" font-size="14" letter-spacing="1.5">ROOFTOP</text>
    <text x="690" y="265" font-size="12" letter-spacing="1.5">+ PLUNGE POOL</text>
  </g>
  <g font-family="Inter, sans-serif" fill="#1E3A5F" fill-opacity="0.55" text-anchor="middle" font-size="10">
    <text x="180" y="190">28 m²</text>
    <text x="400" y="190">22 m²</text>
    <text x="250" y="355">42 m²</text>
    <text x="690" y="285">65 m²</text>
  </g>
  <g stroke="#1E3A5F" stroke-width="1" fill="none">
    <circle cx="740" cy="465" r="10"/>
    <line x1="740" y1="465" x2="740" y2="458"/>
  </g>
  <text x="740" y="450" font-family="Inter, sans-serif" font-size="8" fill="#1E3A5F" text-anchor="middle" letter-spacing="1">N</text>
</svg>
