<svg viewBox="0 0 800 500" xmlns="http://www.w3.org/2000/svg">
  <rect width="800" height="500" fill="transparent"/>
  <g stroke="#1E3A5F" stroke-width="1.5" fill="none">
    <rect x="60" y="60" width="230" height="180"/>
    <rect x="60" y="240" width="230" height="80"/>
    <rect x="290" y="60" width="180" height="130"/>
    <rect x="290" y="190" width="180" height="130"/>
    <rect x="470" y="60" width="130" height="80"/>
    <rect x="470" y="140" width="130" height="80"/>
    <rect x="470" y="220" width="130" height="100"/>
    <rect x="60" y="320" width="540" height="120"/>
    <rect x="600" y="60" width="180" height="380"/>
  </g>
  <g font-family="Georgia, serif" fill="#1E3A5F" text-anchor="middle">
    <text x="175" y="145" font-size="14" letter-spacing="1.5">MASTER SUITE</text>
    <text x="175" y="280" font-size="12" letter-spacing="1.5">MASTER BATH</text>
    <text x="380" y="120" font-size="12" letter-spacing="1.5">RECÁMARA 2</text>
    <text x="380" y="255" font-size="12" letter-spacing="1.5">RECÁMARA 3</text>
    <text x="535" y="95" font-size="10" letter-spacing="1.5">BAÑO 2</text>
    <text x="535" y="175" font-size="10" letter-spacing="1.5">BAÑO 3</text>
    <text x="535" y="265" font-size="10" letter-spacing="1.5">COCINA</text>
    <text x="535" y="285" font-size="9" letter-spacing="1.5">CATERING</text>
    <text x="330" y="380" font-size="18" letter-spacing="2">SALA · COMEDOR · COCINA</text>
    <text x="690" y="235" font-size="14" letter-spacing="1.5">ROOFTOP</text>
    <text x="690" y="255" font-size="12" letter-spacing="1.5">+ JACUZZI</text>
    <text x="690" y="273" font-size="12" letter-spacing="1.5">+ FIREPIT</text>
  </g>
  <g font-family="Inter, sans-serif" fill="#1E3A5F" fill-opacity="0.55" text-anchor="middle" font-size="10">
    <text x="175" y="165">36 m²</text>
    <text x="380" y="140">24 m²</text>
    <text x="380" y="275">24 m²</text>
    <text x="330" y="400">72 m²</text>
    <text x="690" y="295">110 m²</text>
  </g>
  <g font-family="Georgia, serif" fill="#1E3A5F" fill-opacity="0.65" text-anchor="middle" font-size="9" letter-spacing="1">
    <text x="330" y="418">DOBLE ALTURA</text>
  </g>
  <g stroke="#1E3A5F" stroke-width="1" fill="none">
    <circle cx="740" cy="465" r="10"/>
    <line x1="740" y1="465" x2="740" y2="458"/>
  </g>
  <text x="740" y="450" font-family="Inter, sans-serif" font-size="8" fill="#1E3A5F" text-anchor="middle" letter-spacing="1">N</text>
</svg>
